<svg xmlns="http://www.w3.org/2000/svg" viewBox="0 0 640 360" fill="none" aria-hidden="true">
  <defs>
    <linearGradient id="g" x1="0" y1="0" x2="1" y2="1">
      <stop offset="0%" stop-color="#0e1a28"/>
      <stop offset="100%" stop-color="#071018"/>
    </linearGradient>
    <linearGradient id="bid" x1="1" y1="0" x2="0" y2="0">
      <stop offset="0%" stop-color="#00e676" stop-opacity="0.85"/>
      <stop offset="100%" stop-color="#00e676" stop-opacity="0.1"/>
    </linearGradient>
    <linearGradient id="ask" x1="0" y1="0" x2="1" y2="0">
      <stop offset="0%" stop-color="#ff5252" stop-opacity="0.1"/>
      <stop offset="100%" stop-color="#ff5252" stop-opacity="0.85"/>
    </linearGradient>
  </defs>
  <rect width="640" height="360" rx="16" fill="#050a12"/>
  <rect x="20" y="20" width="600" height="320" rx="12" fill="url(#g)" stroke="#1c3a4e"/>
  <text x="40" y="52" fill="#8b9aab" font-family="IBM Plex Sans, sans-serif" font-size="12" font-weight="700" letter-spacing="2">ORDER BOOK</text>
  <g>
    <rect x="40" y="72" width="260" height="14" rx="3" fill="url(#bid)" opacity="0.55"/>
    <rect x="40" y="96" width="210" height="14" rx="3" fill="url(#bid)" opacity="0.7"/>
    <rect x="40" y="120" width="180" height="14" rx="3" fill="url(#bid)" opacity="0.85"/>
    <rect x="40" y="144" width="240" height="14" rx="3" fill="url(#bid)"/>
    <rect x="340" y="72" width="240" height="14" rx="3" fill="url(#ask)"/>
    <rect x="380" y="96" width="200" height="14" rx="3" fill="url(#ask)" opacity="0.85"/>
    <rect x="410" y="120" width="170" height="14" rx="3" fill="url(#ask)" opacity="0.7"/>
    <rect x="360" y="144" width="220" height="14" rx="3" fill="url(#ask)" opacity="0.55"/>
  </g>
  <rect x="40" y="180" width="560" height="36" rx="8" fill="#0a121c" stroke="#24384c"/>
  <text x="56" y="203" fill="#00e676" font-family="IBM Plex Mono, monospace" font-size="14">64,912.50</text>
  <text x="520" y="203" fill="#8b9aab" font-family="IBM Plex Sans, sans-serif" font-size="11">SPREAD 0.02%</text>
  <g fill="#dfe9f4" font-family="IBM Plex Mono, monospace" font-size="11">
    <text x="40" y="248">0.482</text><text x="140" y="248" fill="#00e676">64,910</text>
    <text x="40" y="272">1.204</text><text x="140" y="272" fill="#00e676">64,908</text>
    <text x="40" y="296">0.910</text><text x="140" y="296" fill="#00e676">64,905</text>
    <text x="420" y="248" fill="#ff5252">64,915</text><text x="520" y="248">0.330</text>
    <text x="420" y="272" fill="#ff5252">64,918</text><text x="520" y="272">0.775</text>
    <text x="420" y="296" fill="#ff5252">64,922</text><text x="520" y="296">1.120</text>
  </g>
</svg>
